<svg xmlns="http://www.w3.org/2000/svg" width="48" height="48"><path fill="#fff" d="M0 0h48v48H0V0"/><path fill="#251F47" d="M22 7V5h4v5h-2v5h4v-4h4v4h5v9h2v-3h3a1 1 0 0 1 1 0v7h-3v2h3v8h-4v-3h-2v2a1 1 0 0 1-1 0h1l-1 1h-3v1h4v4a2 2 0 0 1-1 0 1 1 0 0 1 0 1H11v-1h1-1v-4h4v-1h-4v-1h1a1 1 0 0 1-1 0v-3H9v3a1 1 0 0 1 0 1H5v-8h3v-2H5v-7h4v3h2v-9h5v-4h4v4h4v-5h-2a1 1 0 0 1 0-1V7z"/><path fill="#251F47" d="M23 42h2v1h11a1 1 0 0 1 0 1H11v-1h12z"/><path fill="#fff" d="M17 44zm3-6h8v1h-2l-1 1v2h-2v-3a1 1 0 0 0-1 0h-2z"/><path fill="#251F47" d="M23 38h1-1zM20 37h8v2a7 7 0 0 1 0-1h-8v-1m23 0v1h-4v-1h4"/><path fill="#fff" d="M39 38h1-1z"/><path fill="#251F47" d="M5 37h4a1 1 0 0 1 0 1H5v-1m7 0h3v2-1h-4v-1h1M5 27a1 1 0 0 0 0 1h3v1-1H5zm28 10h4l-1 1h-3zm10-10v1h-3 3a1 1 0 0 0 0-1m-6 7h2v2-1h-2zM9 34h2v3-3H9v2-2M22 9h2v3-2h-2a1 1 0 0 1 0-1m2 0h2v1h-2v1-2"/><path fill="#251F47" d="M25 9zm4 6v-3h3v4h4v8h4v-2h2v5h-3v3l1 1h2v5h-2v-3h-4a1 1 0 0 0 0 1v2H12v-3H9a1 1 0 0 0-1 0v3H6v-5h3v-4H6v-5h2v2l1 1v-1l3 1v-9h4v-4h3v4h10v-1"/><path fill="#251F47" d="M42 22v5h-3v3l1 1h2v5h-2v-3h-4a1 1 0 0 0 0 1v2H25v-1h1-1c0-1 0 0 0 0v-1h-1v1h-1s0-1 0 0h-1v-1h-1l-1 1v-1l-1 1-2-1h-2v1-5h15v-1h-1v-1h-3v-1h7s0 1 0 0v-1h1v-1h1a1 1 0 0 1 0-1v1-1h5v-2h2z"/><path fill="#251F47" d="M29 30h4v4H15v-4h14zM32 30zm-3 0z"/><path fill="#fff" d="M26 31h3v2h-3zm-7 0h3v2h-3v-2m-4 0h3v2h-3v-2m15 0h3v2h-3a29 29 0 0 1 0-2m-7 0h2v2h-2a29 29 0 0 1 0-1v-1"/><path fill="#251F47" d="M26 35h3-1 1v1h-4v-1h1z"/><path fill="#251F47" d="M26 35v1h-1v-1h1z"/><path fill="#251F47" d="M26 36a1 1 0 0 0 0-1h-1 1v1h-1v-1 1-1l1 1M25 36h1-1zM25 36h1-1zM25 36zM25 36h1-1m1 0h-1 1M26 36zM26 36zM26 36zM26 36zm-1 0zM28 35h1-1 1v1h-1v-1 1-1 1l-1-1h1zM28 36h1-1zm0 0v-1 1m-1-1h1-1zM29 36h-2 2zM29 36zm-2 0h1-1M28 36h1-1m-1 0h-1 1-1 1M27 36h-1 1m0 0z"/><path fill="#251F47" d="M27 35v1a1 1 0 0 1-1 0h1-1v-1h1M26 35zM26 35h1-1zm0 0h1-1zm1 0zm9-11h1v1h-1 1-1v1h-2v1h-1v-1h1-1 1v-1h1a1 1 0 0 1 0-1v1-1h1z"/><path fill="#251F47" d="m35 25 1 1v-1 1h-2v1h-1v-1h1-1 2zM35 26zm0 0zM35 26zm-1 0zm0 0zm2-2h1v1h-1 1-1v1-2z"/><path fill="#251F47" d="M37 25h-1 1zm-1-1h1l-1 1v-1zM37 24v1h-1l1-1M37 25v-1 1zm-1 0a1 1 0 0 0 1 0h-1m0-1v1-1m1 1zm-2 1v-1 1a1 1 0 0 1-1 0h1zM35 26zm1-2v1h-1a1 1 0 0 1 1 0v-1zM36 24zm0 0v1-1M36 24v1-1m-2 2zM34 26zm2 0c0-1 0 0 0 0m0-2h-1 1zM36 24zM35 25h1-1M35 25zm-1 1zM34 25v1zm1 0zm0-1v1-1m0 2v-1 1M35 25zm1 0zm0 0zm-4 3v1h1-1 1-1v-1 1-1h1v1-1h1v1a1 1 0 0 1-1 0h1-1v1a1 1 0 0 0 0-1v1h-4 1v-1h1-1 1v-1h-1 2z"/><path fill="#251F47" d="M31 28h-1 1v1-1a1 1 0 0 1 0 1v1h-2 1v-1h1-1 1v-1M30 30h-1 1m1 0zm-1-1v1-1"/><path fill="#251F47" d="M30 29v1-1m0 0zm0 0h1-1 1a2 2 0 0 1-1 0m1 0zm-1 1v-1h1v1zM30 29h1-1m1-1v1h1-1v1-2 1-1z"/><path fill="#251F47" d="M31 28a1 1 0 0 1 0 1v-1zm2 1h-1 1M33 29h1-1 1-1M33 29v-1 1zm-1-1v1-1a1 1 0 0 0 0 1v-1m0 2zM32 30zm0-1zM32 30h1-1m1-2v1-1m-2 1h1-1m1 1zm-1-1v-1 1m2 0zm-1 0v1zm10-7v1h-1s1 0 0 0v-1h-1v1-1h2zM40 22v1-1M40 22v1-1zM40 22zm1 0h-1 1m0 1v-1 1m0-1zM41 22zM42 22zm-1 0zM41 22zm1 0v1-1m-1 0zM41 22zm0 0v1-1"/><path fill="#251F47" d="M41 22h1v1h-1v-1m1 0zm0 1zM42 22zm-1 0zm-1 0zm1 0zM29 35h2v1-1 1h-2v-1h-1 1"/><path fill="#251F47" d="M29 35v1-1h-1 1M29 35zM29 35zm2 1zM31 36zm0-1v1h-1v-1h1M30 36h1-1m-1 0h1-1m0-1v1-1 1-1M30 36zm0 0v-1 1m1 0h-1zM30 36h1-1zm0-1zm4-8v-1l1 1h-1v1-1 1h1-1 1v1l-1-1v1h1-1a1 1 0 0 0 0-1v1-2M34 28zM34 28zM34 27v1-1"/><path fill="#251F47" d="M34 27v1a1 1 0 0 1 0-1m0 0v1-1m1 1zm-1-1h1-1zM33 30h1v1-1 1-1 2a1 1 0 0 0-1 0v-2z"/><path fill="#251F47" d="M34 31v1a1 1 0 0 0-1 0v-1h1"/><path fill="#251F47" d="M33 32h1a1 1 0 0 0-1 0zm0-1h1-1v1zm0-1h1-1zM33 30h1-1zM33 30h1zm1 0v1h-1s1 0 0 0v-1h1M33 31h1-1zm0 0c1 0 0 0 0 0h1-1zM34 31h-1 1zM38 28h1v-1s0 1 0 0v2h-1v-1h1-1M39 28h-1 1zm0 0h-1 1M30 35h1-2 1zM30 35h1-1M31 35a1 1 0 0 1-1 0h1m-1 0z"/><path fill="#251F47" d="M30 35zm3-3a1 1 0 0 1 1 0v1h-1v-1m4 1h1-1m0-9v1h1-1v-1z"/><path fill="#251F47" d="M37 24v1h1-1v-1m0 1h1-1zm3-3v1-1 1-1M40 22v1-1M40 22v1zm-4 4v1h-1 1v-1M36 26v1-1m0 0zm4-4h1v1h-1v-1"/><path fill="#251F47" d="M41 22v1h-1l1-1M40 22zm-4 12h-1c1 0 0 0 0 0h1zM36 34zM36 34zm4 0v1-1m-5-6v1-1 1-1m-5 7h1-1c1 0 0 0 0 0M30 35a1 1 0 0 1 1 0h-1m3-2h1c-1 0 0 0 0 0l-1 1h1-1v-1m2-7v1-1m1 7a1 1 0 0 0 0 1v1-2M36 34zm0 0zm-1-6v1-1zm-4 7h1-1m7-6"/><path fill="#251F47" d="M36 27v-1 1zm-2 6s-1 0 0 0v1-1c0 1 0 1 0 0m1-6v1l-1-1zM35 28v-1 1zm4-4v1h-1s1 0 0 0l1-1M38 25a3 3 0 0 0 1 0h-1s1 0 0 0zm1-1v1-1m3 0s0-1 0 0zM42 24zM42 24zm-1-1v-1 1-1M41 23v-1 1-1m-4 3h1-1m-9 10h1-1zm6-4v1-1zM27 35h1-1m7-4a1 1 0 0 1 1 0h-1m6-4h1-1m2 6v1a1 1 0 0 1 0-1zM27 35h1-1m11-6v-1 1zm-9-2v1-1M36 26zm-2 3h1-1zm-1-3h1-1v1h1-1v-1m4-1h1l-1 1v-1m2 0zm1 2zm1 9zM41 36zM41 36zm-8-9h1-1c-1 0 0 0 0 0M39 29zm-5 7zm-3-1zm0 1h1-1m11-4zm-3-5zm-1 6h1-1zm1-3zm3-4zm-12 9zm6-9zm-5 9zm7-6v-1zm-3-3zm-2 2h1-1m7 7v1-1m-5-7zm-5 1zm12-6zm-8 6h1a4 4 0 0 1-1 0"/><path fill="#251F47" d="M36 25h1-1m4-1zm-4 2h-1 1m6 8a1 1 0 0 1 0-1 1 1 0 0 0 0 1m0 2zm0-12v1-1m-6 3zm-7 2zm11-5zm-4 12zm-2-9zm5 0v1zm3 6zm-22 2 1-1-1 1m4-1h1-1m8-5zm2-2h1-1M36 27h1-1zm6 6zm-3-9v1zm-7 5zm10 6zM42 25zm-10 2h1v1h-1v-1m8-3zM17 34zm18-8zm-19 8h1-1m4 0v1zm12 2zm4-10zM17 34zm19-6v1h1-2 1v-1M35 29c1 0 0 0 0 0h1-1zm1 0zm0-2v1h-1 1v-1M36 28h-1 1zM36 28h-1 1M35 28zm0 0h1-1zM36 27v1zm0 0v1-1m-3 8h1-1 1l-1 1h1-1v-1M33 35zm4-5h1l-1 1h1-1s1 0 0 0v-1z"/><path fill="#251F47" d="M37 30h1l-1 1v-1zM37 31zm-4 4h-1 1M32 35h1-1m3-7h1-1 1v1h-1v-1"/><path fill="#251F47" d="M35 28h1-1 1-1l1 1h-1v-1M35 29v-1 1zm6 4h1c-1 0-1 0 0 0h-1v1-1zm-11-5h-1 1v1l-1-1h1zm5 2h-1 1zM35 29v1-1M35 29c0 1 0 1 0 0m3 1h1-1M41 31zm-4-4v-1 1M37 27v-1 1m3 6c1 0 0 0 0 0zm-3-5v1-1 1-1M41 34v1-1M41 34v1-1m-4-2c-1 0 0 0 0 0h-1 1m-3 2h1-1M34 34h1-1m7-11h-1v1-1 1-1h1m-1 11v1-1m-8 1zm4-6v-1h1l-1 1zm-1 0h-1 1m1 2h1-1 1-1M36 31h1-1 1-1zm-7 3v1zm6-2h-1 1m0 3v1-1m-1 1v-1 1M37 29c1 0 1 0 0 0m4 6h1-1M41 35h1-1m-3-5zm-1-4v1-1m0 1h1v1h-1v-1m3 5h1-1m-1-1v1-1m-2-1h1v1l-1-1zM37 29v-1 1m-3 5zM34 34zm-1 1v1-1m2-3h1-1m2-5zm0 0zM40 23h1-1m-4 7v1-1m-1 4h-1 1m3-3v-1 1zM38 31zm-4 2h1a1 1 0 0 1-1 0zM34 33h1-1zm6-7h1-1zm1 5v1-1m-2 2h1-1m-2-6zm-1 3s0-1 0 0m-4 5h-1a1 1 0 0 0 1 0zm9-1zm-2-9zm2 0v1-1m-1-1zm-5 10zm6-3v1-1h-1 1M39 32zm-5 2v1zm0 1zm7-10h1-1zm-2 7v1zm-3-2zm-2 5zm3-9zm1 1h1-1zm4 7zm-6-3zm1-1zm-3 3zm7 2h-1 1m0 1zm-5-6zm-4-10h1v5h1v1h-1v1c0 1 0 0 0 0h-8v-1a6 6 0 0 0 0-1v-5a1 1 0 0 1 1 0h6"/><path fill="#251F47" d="M33 25h1v1h-1v-1"/><path fill="#251F47" d="M33 25h1v1h-1v-1h1z"/><path fill="#fff" d="M26 21h7v6h-7z"/><path fill="#251F47" d="M31 27h1v-1 1h-1zM30 27v-1 1h1zm-2-5h2v1h1v2h-1 1-3v-2z"/><path fill="#251F47" d="M30 25h1-1m-2-2h2v2h-2z"/><path fill="#251F47" d="M29 23h1-1a2 2 0 0 1 0 1l-1 1v-2h1m-1 3zm7-3v1h1-1v1-1a1 1 0 0 0 0 1h-2v-1h2-1l1-1v1-1z"/><path fill="#251F47" d="M34 24h1-1v1-1M35 24zm-2 0h1v1h-1v-1M33 24h1-1m1 1h-1 1M34 25h-1 1m0-1zm1 1v-1 1zm0-2a1 1 0 0 0 0 1v-1M35 23v1-1m0 1zm-1 1zm1-2v1-1zm-1 2zM35 24v-1 1M25 36h-2 2-1 1zM25 36h-1 1zM25 36zM24 36h1zM24 36h1-1m0 0zm12-13v1h-1v-1h1-1 1z"/><path fill="#251F47" d="M35 23h1v1h-1v-1zm1 0zM36 23h-1 1M36 23zm-2 0v1h1-1v-1M34 24h1-1z"/><path fill="#251F47" d="M35 23a1 1 0 0 0 0 1 1 1 0 0 1 0-1v1-1zM35 23zM35 23zM24 35h1-1zm11-13h1v1-1h-1zM36 22v1-1zM36 22v1-1zm-2 1h1l-1 1v-1"/><path fill="#251F47" d="M34 24v-1a1 1 0 0 1 1 0l-1 1M22 36h1-1zM22 36h1zm13-13v-1h1v1h-1M23 35zM23 35zm13-19z"/><path fill="#251F47" d="M36 16zm-2 6h1a1 1 0 0 1 0 1h-1v-1M35 23zm-1-1zm-4-2h-1v-1h1l-1 1h2-1M16 36zM16 36zm20-18c0-1 0 0 0 0zM36 18zM12 34v1h1-1v-1m17-5v1a1 1 0 0 0 0-1m-9 7zM20 36zm16-18v1-1M19 30h-1 1zM19 30zm2 6h1-1M26 16h1-1zM27 16zm1 4zM28 20zm7-4h-1z"/><path fill="#251F47" d="M35 16h-1zm0 0zm-6-1v1-1m-3 15v-1h1l-1 1m9-8v1-1 1a1 1 0 0 0 0-1M21 36h1-1m-4 0zm17-20h1-1m-5 13v-1 1M29 29zm7-8v-1 1h-1 1zM28 28v1-1m7-7h1-1m-2 2h1v1h-1v-1zM33 23h1-1zm-8 4v-1 1m3 2zM28 29zm-10 7h-1 1zm6 0v-1 1m-7-1v1a1 1 0 0 1 0-1zm18-19h1-1zM35 16zm-9 14h1-1m0-3v1-1m8-5h1-1zm-2-6h-1zm-4 13zM28 29zm8-9h-1zM23 35h1-1m-6-5zm12-1zm5-7v1-1zm-1-1h1-1zm2-5zm1 2h-1 1m-7 2zM12 33v1-1zM35 23h1-1M35 23h1-1M19 36h1-1zM19 36h1-1m16-15zm-9-1zm7 4h1-1m3-3a1 1 0 0 1 0 1v-1zm-8-1h1-1zm8-4h-1 1m-1 7v1-1zm-7 5v1-1zm3-8zM18 36zm15-15v1-1m3-2zM24 35v1-1m-7-5v-1 1zm19-9zM36 22v-1 1m-7 7v1-1 1-1m-14 7h1-1m9-2h1v1l-1-1m11-11h-1 1m-4-7zm4 5zm-2-5h1-1zM36 21h-1 1zm-7 8h1-1M29 29h1-1m-12 7h1-1m6-1zm2 0zm11-14v1h-1v-1h1M12 35v1-1zm8-1v1zM20 34v1zm-1-4v-1 1zm16-8zm-11 8h1-1zm-2 0zm8-1h-1zm-7 7h1-1zM36 20zm0 1v-1 1m-13 9h1zm0 6zm13-17v1-1m-6 10a1 1 0 0 0 0 1l-1-1h1m-3-13h1-1zm-4 20zm-1 0zm-2 0zm0-1h1-1zm5 0zm8-13h1zM17 36zm8-1zm-2 0zm10-13h1-1zM24 35h1zm8-19zM16 30zm0 0zm12-1zM24 35h1-1zm-7-1v1-1m0 2v-1 1m-5-3zm6 3zm18-16zm0 1h-1 1zm-7 8a1 1 0 0 1 0 1v-1zm-5 6zm5-7v1-1zm0 2zm-5-14z"/><path fill="#251F47" d="M18 36zm-1-1v1a4 4 0 0 0 0-1zm0 1zm8-1zm-13-1zm23-13v-1h1l-1 1zM25 35zM17 35v1zm18-13zM17 35zm12-15zm-9 15zm14-12zm-6-3zm-5 16zm-6-6h1zm-2-6v-4h8v8h-8v-4z"/><path fill="#251F47" d="M23 27v1h-8 1v-1h4l2 1 1-1"/><path fill="#251F47" d="M16 28v-1 1s1 0 0 0m7-6v3-3M23 23v1-1zM23 23v1-1zM23 24zM23 24zM23 21zM23 22zM23 21v1zm0 5v1z"/><path fill="#fff" d="M15 21h7v6h-7z"/><path fill="#251F47" d="M17 22h3v4-1 1-1l-1 1v-1h-2v-3"/><path fill="#251F47" d="M20 25v1-1 1-1l-1 1v-1h1m-1-2h1v2h-2v-2s-1 0 0 0h1"/><path fill="#251F47" d="M18 23h1l-1 1v1-2s-1 0 0 0zM18 23s-1 0 0 0zm2 2a1 1 0 0 1 0 1v-1m1 1zm-1-5zm15-1v2-1 1-1h-1 1-1 1l-1-1zM35 21zM35 21zm-3-2h1v1h1-1v-1a1 1 0 0 1-1 0z"/><path fill="#251F47" d="M33 19zm1 1h1v1-1h-1z"/><path fill="#251F47" d="M34 20h1a1 1 0 0 1-1 0zM23 36v-1h1a1 1 0 0 1 0 1h-1m-1-1v1-1zM22 36v-1a1 1 0 0 1 0 1m0 0v-1 1m9-18v1-1zM31 19zm4 0v1-1 1-1 1-1zM34 18zm0 0zm1 1v1-1h-1zM35 19v1-1zm-7 10h1l-1 1v-1z"/><path fill="#251F47" d="M28 29h1a1 1 0 0 1-1 0m-8 0h1l-1 1v-1zM20 29h1-1m1 0h1-1zm10-11v-1l1 1h-1z"/><path fill="#251F47" d="m31 17 1 1h-1a2 2 0 0 0 0-1m4 2v-1 1h1-1zM18 35h1zM21 35h-1 1v1h-1l1-1"/><path fill="#251F47" d="M21 35h-1 1v1-1m13-16h-1 1-1 1M34 18h1-1v1-1zM34 18v1-1zm-11 6h1-1m4-6h1-1zm7 4v-1c0 1 0 0 0 0v1M27 29zM27 29zm-5 0a1 1 0 0 1 1-1v1h-1m-4-1c0 1 0 0 0 0v1-1M18 28zM36 17h-1 1M36 17h-1 1M19 36v-1 1zM33 17zm-9 11h1-1M24 28h1-1m7-9h1-1m3-3h1-1l1 1h-1v-1z"/><path fill="#251F47" d="M34 16h1-1v1-1m0 1zm0 0v-1 1zm-4 2a1 1 0 0 0 1 0h-1M30 19h1-1zM30 19zm3 1v-1 1zm1 0v1-1zM22 35h1-1M22 35h1-1m13-18a1 1 0 0 1 0 1v-1M35 17zm-2-1v1-1M22 30v-1l1 1s0-1 0 0h-1zM23 30s0-1 0 0m1-4h1v1h-1v-1"/><path fill="#251F47" d="M24 27v-1a1 1 0 0 1 0 1m9-9h1-1zm-9 11h1a1 1 0 0 1-1 0m0-4zM35 18zM20 29v1-1zM20 30v-1 1m13-12a1 1 0 0 1 0-1v1zM33 17v1-1M21 30v-1 1m0 5zm14-15zm-7 10v-1 1-1l1 1h-1zM31 13zm3 6v1zm0 3zm-15 7c1 0 0 0 0 0v1-1M19 29c1 0 0 0 0 0m15-6h-1 1zM34 23zM34 23zM24 35h1-1M24 35h1-1m-1-18v1-1m11 4zM28 29l1-1v1h-1zm6-12zM18 35s-1 0 0 0m9-7a1 1 0 0 1 0 1zm-2-4zm-6 11v1a1 1 0 0 1 0-1m12-17zm-8 9v1-1zM23 27zm-6 1v1-1m6 7v1a1 1 0 0 1 0-1m-9-5h1-1m10-7v1-1zm0-2v1-1m6-7a1 1 0 0 1 1 0h-1m-5 13v1-1m-11 9h1-1m4-7h-1 1zM28 17v1-1m6 5v1zm-4-3h1v1h-1v-1m-5 9zm-9 8zm8-10h-1 1m4-7v1-1 1-1M15 36h1-1m-1-5-1 1 1-1M17 28h1v1l-1-1m3 7v1-1M20 35zm0-5h1-1m12-10v-1 1h1-1m-14 9v-1 1m16-10zm-11 6zm11-7v1zM30 18zm-3 11v-1 1zm5-12v1h-1 1z"/><path fill="#251F47" d="M32 18v-1 1h-1 1M21 28v1-1M21 28v1-1m10-9v1h1-1v-1m2-2h1-1zM34 17zM33 17h1-1M34 19zm-5 10zm-16 6c0-1 0 0 0 0zm4-6zM30 19h-1 1zM11 31l1 1h-1v-1m13-6h-1 1zm-1 2v1-1zm10-9zM17 35zM17 35zm-3 0zm14-6h1-1M26 30v-1 1zm-3-1h1-1zm7-10h-1 1m3-2v1zM33 18v-1 1zm1 2v1-1zm0-1v1-1m1-1h1l-1 1v-1zm-11 5v1-1m-5-5v1-1M7 34h1v1H7v-1m28-12h-1 1M13 35v-1 1zm14-6zm-2-7h-1 1m-7-5 1 1h-1v-1m16 2h1-1m-9 3v1-1zm9-3v1-1zm-4-4h-1 1M20 35v1-1m7-6h1v1zm-6 0zM18 35h1-1m5-7v1-1zm6-9zm6-1v1-1M27 18zm4 0h1-1m-7 3v1-1m10-4v1-1m-10 8zm-3 4h-1zm9-12v-1 1zm-4 11zm10-9h-1zM20 35c-1 0 0 0 0 0m13-17h1-1 1-1zm-2 1zm-2 10zm-5-13h-1zm-6 13zm7 0v1-1m-2 0 1 1h-1v-1m-6-1v1zm16-11zm-8 4a1 1 0 0 1-1 0zm6-5h1-1m4 0v1-1m-1 4h1-1M14 35h1-1m5 0zm5-11zm-8-5zm7 9zm-9 3zm22-11h-1 1zm-4-1zM16 29h-1 1m17-10zM33 19zM17 35h1-1m-3-3h1-1m19-15a1 1 0 0 1 0-1v1c0-1 0-1 0 0M14 29zm10-9h1-1zM13 31v1-1m9-3v1h-1l1-1m10-11h1-1zm1 1v-1l1 1h-1m-1-1v1-1m-9 10h1-1m-5 2zm5-3zm8-6zm2-1v-1 1m-8 2v1-1m4-2v1-1zM12 29v1-1zm19-13v1-1m-2-1zm-6 1zm-7 14v-1h1zm7-3zm8-11v1-1zm-2 12zm2-11zM19 35zm8-6zm7-9zM12 32h1-1m17-16h-1 1m0 3v1-1m-3 0zm-10-1v1l-1-1h1m17 1v1zM19 30h1-1zm-5 5v1-1zm21-17zM19 35h1v1h-1v-1zm5-10zm8-7v1l-1-1h1M22 28v1-1m3 1h1-1m-2 1a1 1 0 0 1 0-1v1m-11-5zm7 3zm11-9zM19 29zm-3-1v1a1 1 0 0 1 0-1m12-11zm1 12zm2-12h1-1zM14 33zm-1 2v1-1m2-1h-1zm6 1zm1-6h1-1m7-10zm-5-1v1-1m7-2v1zM13 30zm13-1zm6-10h1-1M14 36zM7 25zm18 10v1-1m-9-17zm14-3zm-7 11zM25 21zm-1 7v1l-1-1h1m0-3h1-1zm0-2v1-1m1-5zm5-3zM14 35h1-1m15-20zM8 35v1-1m25-19zM8 32zm19-3h1-1m-4-13zm3 2zm-4 18h-1 1m8-21zm-5 11zm5-10zm-6 14h1zm0-1zm-11-7zm2 8h1-1m10-1zm-11 4zm15-16v1-1zm2 2zm-2 10v-1 1m-5-6h1-1zm2-5zm4-1 1 1h-1v-1M15 29zm-1-4zm-1 11h1-1m14-17zm5-1zm-2 0zM7 34zm7 0v1-1zm13-6zm6-10zm-19 7zm15-7zm-6 5zm3-4zm-15 9zm4 9h4v3h3v2h-4a1 1 0 0 1-1 0h-1a6 6 0 0 1-1 0h-3v-2h3v-2zM16 41v1-1m13-4h4v3h3v2H26v-2h3v-3M29 40v-1 1zM25 6v2h-2V7a8 8 0 0 1 0-1h1zm4 30h1-1M29 36h1-1m8 7 1-1 1 1h-1l1 1h-2v-1"/><path fill="#251F47" d="M37 43h1l1 1h-2v-1M9 43v-1h1v2H9v-1"/><path fill="#251F47" d="M9 43v-1h1v1H9z"/><path fill="#fff" d="M43 2zm4 15h1v1h-1v-1M1 17v1H0v-1zm32 30h1-1zM1 45H0h1zm46 0h1-1zM33 4h1-1zm14 0zm-6-1zM5 43zM29 5zm14 38zM1 4H0h1zm39 39h1-1m3-4v1-1zm0-24zM37 4zM4 39h1v1H4v-1z"/><path fill="#251F47" d="M47 30h1-1"/><path fill="#fff" d="M5 28zm19 18h1-1zM0 30h1-1zM24 1v1h1-1V1m4 1h1v1h-1zM4 13h1-1zm1 32H4h1zm9-45v1h1-1V0zm4 0v1-1zm25 13h1-1zm-29-3zm8 4zm-4 33v1-1zM1 12zm0 11z"/><path fill="#251F47" d="M1 36z"/><path fill="#fff" d="M1 10zm4 10zm-4 5v1-1m42-5zM5 15zm10-8zm28 38h1-1zM11 13zM38 3zm-1 10zM10 3zm34 23v-1 1zm3 10zM40 5zm7 5zm-21 0zm-6-8zM9 39h1-1zm5-36zm30 1zM4 4zm36 37zM30 7zM10 6zm33-2h1-1zm-4 5v1-1M16 5zm29 5v1-1M4 17h1-1m43 8v1-1zM16 46zM38 6v1-1zm9 17zm-9 22zM10 20H9h1zm33-3zM9 9v1-1zm27 37zM5 4zm-2 6v1-1zm32 3h-1zM20 46zM8 46zm-5-9zm42 0h-1zM6 7zM4 30zm23-17v1-1zm20 25zM3 26h1-1zM31 7h1v1h-1V7zm-17 6zm15 32h-1 1zM42 7zm-2 11zM8 5zm32 41zm4-29zm-34 0zm7-9zm0 1zM2 34v1-1M8 2z"/><path fill="#251F47" d="M46 8v1z"/><path fill="#fff" d="M46 34v1-1zm-2-4zM2 8v1zm8 37zm1 1h1-1zm33-16zM4 45zM27 4zm17 41zM42 5zM5 5h1-1zm33 35zM1 38zm4 8zM37 8v1-1zM18 8V7v1zm12-4h1-1zM4 30zm4-12zM31 7zm0 1v1-1zM4 17z"/><path fill="#251F47" d="M9 40z"/><path fill="#fff" d="M8 15zm34-2zM12 3zm18 44h1-1zm12-1zm-2-31zM6 13zm32 7zM8 43H7h1zm19 3z"/><path fill="#251F47" d="M13 11z"/><path fill="#fff" d="M3 21v1H2v-1h1zm32-9z"/><path fill="#251F47" d="M22 11z"/><path fill="#fff" d="M32 10h1-1zm-3-3zm17 15zm-8-5zM18 2zm24 16zM18 4z"/><path fill="#251F47" d="M43 33z"/></svg>